# xmcd
#
# Track frame offsets:
#	150
#	10990
#	29285
#	68257
#	77497
#	87602
#	103637
#	112975
#	125822
#	145042
#	163497
#	178782
#	194685
#	212860
#	225215
#	237695
#	249990
#	266302
#
# Disc length: 3596
#
# Revision: 1
# Processed by: cddbd v1.5.1PL0 Copyright (c) Steve Scherf et al.
# Submitted via: ExactAudioCopy v0.90b4
# Normalized: r0:DSETVAR1,TDELIM( - )
#
DISCID=f60e0a12
DTITLE=Various Artist - Church Street Station - Vol. 2 -
DYEAR=1900
DGENRE=Country
TTITLE0=Danny Davis and Nashville Brass - Trailer - It´s Country Time
TTITLE1=Nitty Gritty Dirt Band - Partners, Brothers And Friends
TTITLE2=Boxcar Willie - Hank Williams Medley
TTITLE3=Dottie West - Rocky Top
TTITLE4=Freddy Fender - Wasted Days And Nights
TTITLE5=Barbara Fairchild - Teddy Bear Song
TTITLE6=Johnny Rodriguez - We´re Over
TTITLE7=Sweethearts Of The Rodeo - Hey Doll Baby
TTITLE8=Tanya Tucker - Delta Dawn
TTITLE9=Charly Rich - Let´s Take It Nice And Easy
TTITLE10=Jeanny C. Riley - Harper Valley P.T.A.
TTITLE11=Rex Allen Sen. and Rex Allen Jr. - This Land Is Your Land
TTITLE12=Atlanta - Pictures
TTITLE13=Lynn Anderson - Rose Garden
TTITLE14=The Osmonds - Where Does An Engel Go?
TTITLE15=Forester Sisters - Dixie Man
TTITLE16=Tom T. Hall - I Like Beer
TTITLE17=Danny Davis and Nashville Brass - Trailer - It´s Country Time
EXTD=
EXTT0=
EXTT1=
EXTT2=
EXTT3=
EXTT4=
EXTT5=
EXTT6=
EXTT7=
EXTT8=
EXTT9=
EXTT10=
EXTT11=
EXTT12=
EXTT13=
EXTT14=
EXTT15=
EXTT16=
EXTT17=
PLAYORDER=
